<?xml version="1.0" encoding="UTF-8"?>
<svg xmlns="http://www.w3.org/2000/svg" viewBox="0 0 8 7" width="8" height="7">
  <g fill="#000">
    <rect y="0" width="7" height="1"/>
    <rect y="1" width="1" height="1"/>
    <rect x="6" y="1" width="1" height="1"/>
    <rect y="2" width="1" height="1"/>
    <rect x="2" y="2" width="3" height="1"/>
    <rect x="6" y="2" width="1" height="1"/>
    <rect y="3" width="1" height="1"/>
    <rect x="2" y="3" width="1" height="1"/>
    <rect x="4" y="3" width="1" height="1"/>
    <rect x="6" y="3" width="1" height="1"/>
    <rect y="4" width="1" height="1"/>
    <rect x="2" y="4" width="1" height="1"/>
    <rect x="4" y="4" width="3" height="1"/>
    <rect y="5" width="1" height="1"/>
    <rect x="2" y="5" width="1" height="1"/>
    <rect y="6" width="1" height="1"/>
    <rect x="2" y="6" width="6" height="1"/>
  </g>
</svg>
