<?xml version="1.0" encoding="UTF-8"?>
<svg id="b" data-name="Layer 2" xmlns="http://www.w3.org/2000/svg" width="428.1" height="411.617" viewBox="0 0 428.1 411.617">
  <g id="c" data-name="Layer 1">
    <path d="M334.49,111.82h-30.34c-1.15-2.45-2.36-4.89-3.64-7.28-25.28-47.21-74.22-76.54-127.72-76.54C92.95,28,28,92.95,28,172.78c0,60.75,38.35,115.47,95.42,136.16,2.06.75,4.13,1.44,6.2,2.08v29.11c-.17-.04-.34-.09-.51-.13-5.05-1.31-10.19-2.91-15.24-4.74-33.03-11.98-61.33-33.5-81.83-62.23C11.08,243.65,0,208.99,0,172.78,0,77.51,77.51,0,172.79,0c63.84,0,122.23,34.99,152.4,91.32,2.66,4.97,5.09,10.1,7.23,15.24.72,1.74,1.41,3.49,2.07,5.26Z"/>
    <g>
      <path d="M389.99,134.757h-214.64c-13.32,0-24.11,10.79-24.11,24.11v214.64c0,13.31,10.79,24.11,24.11,24.11h214.64c13.31,0,24.11-10.8,24.11-24.11v-214.64c0-13.32-10.8-24.11-24.11-24.11ZM400.1,373.507c0,5.57-4.54,10.11-10.11,10.11h-214.64c-5.58,0-10.11-4.54-10.11-10.11v-214.64c0-5.58,4.53-10.11,10.11-10.11h214.64c5.57,0,10.11,4.53,10.11,10.11v214.64Z" fill="#fff"/>
      <path d="M389.99,120.757h-214.64c-21.02,0-38.11,17.09-38.11,38.11v214.64c0,21.01,17.09,38.11,38.11,38.11h214.64c21.01,0,38.11-17.1,38.11-38.11v-214.64c0-21.02-17.1-38.11-38.11-38.11ZM400.1,373.507c0,5.57-4.54,10.11-10.11,10.11h-214.64c-5.58,0-10.11-4.54-10.11-10.11v-214.64c0-5.58,4.53-10.11,10.11-10.11h214.64c5.57,0,10.11,4.53,10.11,10.11v214.64Z"/>
    </g>
  </g>
</svg>