<?xml version="1.0" encoding="UTF-8"?>
<svg id="b" data-name="Layer 2" xmlns="http://www.w3.org/2000/svg" width="279.938" height="335.854" viewBox="0 0 279.938 335.854">
  <g id="c" data-name="Layer 1">
    <g>
      <path d="M15,335.854c-8.284,0-15-6.716-15-15,0-22.706,14.963-34.148,25.889-42.503,10.241-7.831,14.111-11.47,14.111-18.671s-3.87-10.84-14.111-18.672C14.963,232.654,0,221.212,0,198.506s14.963-34.146,25.889-42.501c10.241-7.831,14.111-11.469,14.111-18.67s-3.87-10.838-14.11-18.668C14.964,110.312,0,98.872,0,76.166s14.964-34.146,25.89-42.499c10.24-7.83,14.11-11.468,14.11-18.667,0-8.284,6.716-15,15-15s15,6.716,15,15c0,22.705-14.964,34.146-25.89,42.499-10.24,7.83-14.11,11.468-14.11,18.667s3.87,10.839,14.111,18.669c10.926,8.354,25.889,19.795,25.889,42.5s-14.963,34.147-25.889,42.502c-10.241,7.83-14.111,11.469-14.111,18.669s3.87,10.84,14.111,18.671c10.926,8.354,25.889,19.797,25.889,42.503s-14.963,34.148-25.889,42.503c-10.241,7.831-14.111,11.47-14.111,18.671,0,8.284-6.716,15-15,15Z"/>
      <path d="M119.969,335.854c-8.284,0-15-6.716-15-15,0-22.706,14.963-34.148,25.889-42.503,10.241-7.831,14.111-11.47,14.111-18.671s-3.87-10.84-14.111-18.672c-10.926-8.354-25.889-19.796-25.889-42.502s14.963-34.146,25.889-42.501c10.241-7.831,14.111-11.469,14.111-18.67s-3.87-10.838-14.11-18.668c-10.926-8.354-25.89-19.795-25.89-42.501s14.964-34.146,25.89-42.499c10.24-7.83,14.11-11.468,14.11-18.667,0-8.284,6.716-15,15-15s15,6.716,15,15c0,22.705-14.964,34.146-25.89,42.499-10.24,7.83-14.11,11.468-14.11,18.667s3.87,10.839,14.111,18.669c10.926,8.354,25.889,19.795,25.889,42.5s-14.963,34.147-25.889,42.502c-10.241,7.83-14.111,11.469-14.111,18.669s3.87,10.84,14.111,18.671c10.926,8.354,25.889,19.797,25.889,42.503s-14.963,34.148-25.889,42.503c-10.241,7.831-14.111,11.47-14.111,18.671,0,8.284-6.716,15-15,15Z"/>
      <path d="M224.938,335.854c-8.284,0-15-6.716-15-15,0-22.706,14.963-34.148,25.889-42.503,10.241-7.831,14.111-11.47,14.111-18.671s-3.87-10.84-14.111-18.672c-10.926-8.354-25.889-19.796-25.889-42.502s14.963-34.146,25.889-42.501c10.241-7.831,14.111-11.469,14.111-18.67s-3.87-10.838-14.11-18.668c-10.926-8.354-25.89-19.795-25.89-42.501s14.964-34.146,25.89-42.499c10.24-7.83,14.11-11.468,14.11-18.667,0-8.284,6.716-15,15-15s15,6.716,15,15c0,22.705-14.964,34.146-25.89,42.499-10.24,7.83-14.11,11.468-14.11,18.667s3.87,10.839,14.111,18.669c10.926,8.354,25.889,19.795,25.889,42.5s-14.963,34.147-25.889,42.502c-10.241,7.83-14.111,11.469-14.111,18.669s3.87,10.84,14.111,18.671c10.926,8.354,25.889,19.797,25.889,42.503s-14.963,34.148-25.889,42.503c-10.241,7.831-14.111,11.47-14.111,18.671,0,8.284-6.716,15-15,15Z"/>
    </g>
  </g>
</svg>