<?xml version="1.0" encoding="UTF-8"?>
<svg id="b" data-name="Layer 2" xmlns="http://www.w3.org/2000/svg" width="404.496" height="281.526" viewBox="0 0 404.496 281.526">
  <g id="c" data-name="Layer 1">
    <g>
      <path d="M4.144,277.644c-2.075-1.809-3.367-4.139-3.883-6.99-.521-2.846-.261-5.563.776-8.154L101.998,13.591c1.554-4.138,3.944-7.438,7.185-9.902,3.233-2.457,7.05-3.688,11.455-3.688,4.659,0,8.604,1.104,11.844,3.301,3.233,2.202,5.758,5.63,7.571,10.29l101.738,247.743c1.292,2.852,1.614,5.764.971,8.737-.649,2.979-2.075,5.437-4.271,7.378-2.202,1.941-5.242,2.912-9.125,2.912-3.368,0-6.213-.971-8.543-2.912s-4.145-4.721-5.437-8.349L130.346,55.528c-3.106-8.543-6.347-16.952-9.708-25.24-2.075,5.182-4.145,10.357-6.213,15.532-1.038,2.852-2.33,6.086-3.884,9.708L25.89,269.877c-1.299,3.628-3.046,6.273-5.242,7.96-2.203,1.681-4.987,2.524-8.349,2.524s-6.086-.91-8.155-2.718ZM52.295,168.916h135.909v22.521H52.295v-22.521Z"/>
      <path d="M285.673,274.73c-9.58-4.526-17.086-11-22.522-19.415-5.437-8.41-8.154-18.057-8.154-28.93,0-16.048,5.497-28.735,16.503-38.055,11-9.319,25.562-15.398,43.686-18.25l38.831-6.214c8.798-1.292,15.271-3.494,19.416-6.601,4.138-3.106,6.213-8.021,6.213-14.756,0-11.649-4.017-20.902-12.038-27.765-8.027-6.856-18.639-10.29-31.842-10.29-14.24,0-25.307,3.173-33.2,9.514-7.899,6.347-13.009,14.822-15.339,25.435-1.037,3.883-2.591,6.862-4.659,8.931s-4.921,3.106-8.543,3.106c-2.852,0-5.309-.776-7.378-2.33-2.075-1.553-3.435-3.816-4.077-6.795-.649-2.973-.194-6.796,1.358-11.455,4.66-13.979,13.069-25.301,25.241-33.978,12.165-8.67,27.182-13.009,45.044-13.009,14.756,0,27.437,2.785,38.055,8.349,10.611,5.57,18.639,13.397,24.075,23.493,5.437,10.097,8.154,21.879,8.154,35.337v114.94c0,4.659-1.104,8.221-3.301,10.678-2.202,2.458-5.114,3.689-8.736,3.689s-6.602-1.231-8.932-3.689c-2.33-2.457-3.495-6.019-3.495-10.678v-20.581c-5.182,10.873-13.142,19.609-23.881,26.211-10.745,6.602-23.626,9.902-38.637,9.902-11.649,0-22.268-2.27-31.842-6.796ZM351.298,253.762c9.059-5.303,16.048-12.426,20.969-21.357,4.914-8.931,7.378-18.833,7.378-29.705v-29.9c-1.038,2.33-3.629,4.338-7.767,6.019-4.144,1.687-9.58,3.174-16.309,4.466l-33.007,5.825c-12.948,2.329-23.104,6.54-30.482,12.62-7.378,6.085-11.067,14.307-11.067,24.657,0,10.618,3.689,19.161,11.067,25.629,7.378,6.474,16.892,9.708,28.541,9.708,11.388,0,21.611-2.651,30.677-7.961Z"/>
    </g>
  </g>
</svg>