<?xml version="1.0" encoding="UTF-8"?>
<svg id="b" data-name="Layer 2" xmlns="http://www.w3.org/2000/svg" width="348.116" height="348.116" viewBox="0 0 348.116 348.116">
  <g id="c" data-name="Layer 1">
    <g>
      <g>
        <rect x="159.058" y="63.49" width="30" height="30"/>
        <rect x="196.058" y="63.49" width="45.236" height="30"/>
        <rect x="106.822" y="63.49" width="45.236" height="30"/>
        <rect x="69.822" y="152.726" width="30" height="30"/>
        <rect x="69.822" y="63.49" width="30" height="30"/>
        <rect x="196.058" y="152.726" width="45.236" height="30"/>
        <rect x="106.822" y="152.726" width="45.236" height="30"/>
        <path d="M285.294,93.49h47.822c8.284,0,15-6.716,15-15s-6.716-15-15-15h-47.822s0,30,0,30Z"/>
        <rect x="69.822" y="241.962" width="30" height="30"/>
        <rect x="159.058" y="152.726" width="30" height="30"/>
        <rect x="106.822" y="241.962" width="45.236" height="30"/>
        <path d="M15,182.726h47.822v-30H15c-8.284,0-15,6.716-15,15s6.716,15,15,15Z"/>
        <path d="M15,93.49h47.822s0-30,0-30H15c-8.284,0-15,6.716-15,15s6.716,15,15,15Z"/>
        <path d="M62.822,241.962H15c-8.284,0-15,6.716-15,15s6.716,15,15,15h47.822v-30Z"/>
        <path d="M333.116,241.962h-47.822v30s47.822,0,47.822,0c8.284,0,15-6.716,15-15s-6.716-15-15-15Z"/>
        <path d="M333.116,152.726h-47.822v30s47.822,0,47.822,0c8.284,0,15-6.716,15-15s-6.716-15-15-15Z"/>
        <rect x="248.294" y="152.726" width="30" height="30"/>
        <rect x="196.058" y="241.962" width="45.236" height="30"/>
        <rect x="248.293" y="241.962" width="30" height="30"/>
        <rect x="248.294" y="63.49" width="30" height="30"/>
        <rect x="159.058" y="241.962" width="30" height="30"/>
      </g>
      <g>
        <path d="M248.293,333.116V15c0-8.284,6.717-15,15.001-15s15,6.716,15,15v318.116c0,8.284-6.717,15-15.001,15s-15-6.716-15-15Z"/>
        <path d="M159.058,333.116V15c0-8.284,6.716-15,15-15s15,6.716,15,15v318.116c0,8.284-6.716,15-15,15s-15-6.716-15-15Z"/>
        <path d="M69.822,333.116V15c0-8.284,6.716-15,15-15s15,6.716,15,15v318.116c0,8.284-6.716,15-15,15s-15-6.716-15-15Z"/>
      </g>
    </g>
  </g>
</svg>